<?xml version="1.0" standalone="no"?>
<!DOCTYPE svg PUBLIC "-//W3C//DTD SVG 20010904//EN"
 "http://www.w3.org/TR/2001/REC-SVG-20010904/DTD/svg10.dtd">
<svg version="1.0" xmlns="http://www.w3.org/2000/svg"
 width="951.000000pt" height="1280.000000pt" viewBox="0 0 951.000000 1280.000000"
 preserveAspectRatio="xMidYMid meet">
<metadata>
Created by potrace 1.15, written by Peter Selinger 2001-2017
</metadata>
<g transform="translate(0.000000,1280.000000) scale(0.100000,-0.100000)"
fill="#000000" stroke="none">
<path d="M4766 12789 c-755 -80 -1216 -578 -1322 -1429 -8 -63 -14 -151 -14
-196 0 -94 13 -114 73 -114 55 0 65 24 78 181 63 797 438 1279 1084 1395 138
25 496 26 640 1 386 -68 700 -211 922 -421 185 -175 258 -341 294 -671 31
-291 -35 -556 -184 -736 -107 -129 -306 -253 -521 -324 -74 -25 -140 -38 -246
-50 -147 -16 -212 -30 -270 -60 -28 -14 -43 -15 -119 -6 -397 51 -663 191
-780 411 -64 120 -76 257 -37 412 80 317 281 573 551 703 225 109 416 111 625
9 286 -141 410 -455 268 -677 -81 -127 -329 -237 -505 -224 -89 7 -147 32
-195 85 -48 53 -56 96 -29 156 16 37 29 51 63 66 59 27 150 25 270 -3 82 -20
101 -22 126 -12 47 21 56 68 20 109 -35 39 -166 70 -303 70 -105 1 -113 -1
-178 -32 -107 -53 -163 -146 -160 -268 2 -77 36 -145 104 -208 149 -139 389
-150 647 -31 234 109 345 269 345 500 0 85 -4 113 -30 186 -91 262 -341 458
-639 500 -148 21 -328 -12 -489 -90 -330 -158 -578 -490 -651 -868 -64 -337
119 -654 469 -813 120 -54 359 -120 436 -120 12 0 21 -2 21 -4 0 -2 -16 -28
-36 -57 -57 -83 -167 -320 -217 -464 -146 -427 -184 -854 -101 -1143 30 -105
109 -272 189 -402 32 -52 128 -191 213 -310 380 -529 452 -661 503 -923 25
-130 34 -335 20 -470 -56 -545 -319 -988 -702 -1182 -36 -18 -71 -40 -78 -49
-20 -24 -9 -76 21 -99 24 -18 32 -19 65 -9 63 19 199 102 286 174 275 228 466
588 539 1018 30 175 30 456 0 620 -54 298 -124 433 -485 938 -341 478 -426
640 -458 877 -50 377 107 1006 336 1350 95 143 139 168 336 190 210 24 285 43
449 115 480 209 707 595 661 1123 -21 236 -66 418 -132 536 -122 218 -333 402
-619 540 -340 164 -776 240 -1154 200z"/>
<path d="M2385 11178 c-273 -30 -560 -141 -796 -307 -122 -85 -345 -308 -429
-429 -260 -372 -379 -813 -349 -1295 28 -449 159 -821 407 -1154 149 -199 429
-444 679 -593 336 -201 680 -336 1196 -470 87 -23 182 -52 212 -64 221 -98
382 -290 447 -535 26 -100 28 -291 4 -406 -42 -197 -165 -427 -325 -608 -56
-64 -64 -98 -33 -138 29 -34 75 -30 118 12 50 48 174 213 225 301 202 344 237
735 95 1044 -94 203 -257 366 -459 459 -39 18 -151 54 -247 78 -616 159 -1023
338 -1385 610 -447 334 -709 784 -774 1327 -30 248 -22 456 24 681 67 327 219
619 444 851 199 207 416 344 671 426 181 58 250 67 520 67 215 -1 257 -3 346
-23 298 -65 514 -178 699 -366 107 -108 172 -198 235 -323 73 -146 127 -321
159 -513 50 -300 31 -503 -63 -705 -141 -300 -458 -494 -961 -587 -97 -18
-458 -17 -550 1 -455 90 -751 379 -772 753 -16 277 103 536 337 736 293 250
613 314 890 179 78 -38 192 -148 232 -223 56 -104 72 -229 42 -317 -33 -97
-183 -213 -339 -263 -189 -60 -396 -51 -439 18 -22 36 72 97 174 113 95 15
125 101 49 141 -63 32 -254 -37 -322 -116 -95 -111 -53 -257 90 -310 314 -118
818 79 924 360 62 165 16 379 -118 545 -142 175 -349 267 -602 266 -181 0
-335 -48 -511 -159 -371 -234 -577 -590 -557 -962 14 -247 104 -441 287 -613
315 -297 836 -392 1390 -256 469 116 781 349 914 682 54 137 68 210 73 397 6
198 -7 317 -56 510 -88 343 -198 548 -406 755 -234 234 -527 373 -883 420
-123 16 -377 18 -507 3z"/>
<path d="M4161 8304 c-38 -48 -31 -61 113 -220 429 -476 724 -990 817 -1426
19 -84 23 -136 23 -283 1 -166 -1 -188 -27 -288 -63 -243 -167 -419 -350 -594
-51 -48 -126 -111 -167 -139 -88 -59 -105 -89 -73 -132 35 -47 76 -42 168 20
217 145 430 412 515 647 142 391 110 800 -98 1267 -149 334 -425 734 -738
1072 -85 90 -99 102 -129 102 -24 0 -39 -7 -54 -26z"/>
<path d="M3900 5068 c-11 -12 -20 -32 -20 -45 0 -30 42 -73 70 -73 26 0 70 43
70 68 0 11 -9 31 -21 46 -26 33 -70 35 -99 4z"/>
<path d="M3105 5041 c-72 -30 -77 -139 -8 -170 40 -18 73 -13 104 18 47 48 38
116 -21 146 -32 17 -45 18 -75 6z"/>
<path d="M3610 5017 c-38 -19 -55 -61 -40 -98 41 -98 182 -33 144 66 -6 15
-54 45 -71 45 -4 0 -19 -6 -33 -13z"/>
<path d="M7000 4689 c-1500 -23 -4757 -70 -6115 -89 -434 -7 -796 -13 -802
-15 -7 -3 -13 -20 -13 -40 0 -34 -1 -35 -36 -35 l-36 0 6 -97 c63 -902 224
-1565 529 -2167 401 -793 1046 -1332 1887 -1576 41 -12 77 -24 79 -25 1 -2
-13 -30 -33 -62 -82 -134 -86 -230 -14 -318 54 -64 107 -81 463 -139 1024
-170 1964 -166 2895 9 320 61 373 79 424 153 55 79 45 227 -25 365 -16 33 -29
61 -27 62 2 1 23 15 48 30 334 206 755 729 1051 1305 l33 65 7 -89 c16 -196
137 -325 359 -382 48 -12 92 -15 168 -12 92 4 109 8 170 39 51 26 75 45 99 82
47 70 50 103 23 242 -28 143 -36 276 -21 332 22 80 136 180 285 248 78 36 241
88 496 159 297 83 397 151 484 329 57 115 92 236 111 384 59 449 -70 830 -339
998 -352 219 -764 167 -1162 -147 l-62 -48 6 225 5 225 -229 -2 c-126 -1 -447
-5 -714 -9z m790 -216 c0 -117 -18 -340 -41 -508 -105 -778 -432 -1642 -874
-2310 -315 -478 -659 -805 -911 -869 -527 -133 -2675 -153 -3284 -30 -115 23
-311 81 -445 131 -973 366 -1613 1154 -1909 2353 -87 353 -126 612 -171 1136
l-5 61 242 6 c132 4 312 7 399 7 156 0 159 0 164 -22 13 -59 47 -198 85 -343
59 -225 54 -263 -69 -548 -68 -159 -84 -223 -79 -323 3 -62 11 -94 32 -137 31
-64 97 -141 155 -181 108 -75 268 -98 366 -52 105 48 140 128 139 311 -1 109
-5 136 -47 295 -54 207 -62 268 -47 335 23 102 103 175 193 175 70 0 160 -51
219 -125 68 -84 88 -143 88 -262 0 -117 19 -191 65 -254 63 -87 168 -112 270
-64 102 48 198 191 230 340 21 102 18 174 -12 297 -26 101 -26 111 -13 151 22
63 60 79 180 74 149 -5 211 -49 275 -192 72 -162 93 -186 173 -199 91 -14 230
38 286 107 l31 39 5 216 c4 140 10 227 18 246 19 43 78 121 106 140 26 16 432
25 2766 56 437 6 831 12 875 13 44 2 185 4 313 5 l232 2 0 -77z m1052 -58 c43
-9 115 -36 174 -65 120 -59 194 -130 250 -243 111 -219 124 -577 33 -862 -28
-89 -80 -188 -122 -233 -38 -41 -158 -91 -342 -142 -463 -130 -601 -190 -742
-323 -134 -126 -160 -256 -107 -530 32 -164 29 -182 -36 -215 -40 -21 -55 -23
-145 -19 -127 5 -198 31 -265 96 -61 59 -73 99 -73 263 l0 127 43 56 c66 85
266 273 371 347 165 118 326 207 639 357 117 56 185 95 232 135 215 179 322
444 243 603 -49 98 -161 178 -285 204 -82 17 -240 6 -325 -24 -166 -58 -249
-118 -432 -318 -76 -81 -138 -147 -139 -146 -1 1 7 40 17 87 24 108 69 376 69
412 0 55 233 254 398 340 191 100 365 130 544 93z m-117 -601 c29 -11 68 -36
98 -65 l50 -48 -5 -73 c-7 -106 -56 -197 -165 -305 -73 -73 -97 -89 -201 -139
-307 -147 -386 -188 -507 -261 -154 -92 -301 -201 -404 -298 -41 -38 -71 -61
-67 -50 88 227 165 448 211 608 12 41 24 62 43 74 63 40 121 95 262 249 188
204 277 270 420 310 67 18 207 17 265 -2z m-2646 -3233 c39 -85 54 -166 37
-201 -14 -32 -47 -42 -261 -86 -910 -183 -1887 -192 -2900 -24 -368 60 -405
72 -405 133 0 46 108 216 129 203 11 -7 232 -34 376 -45 519 -42 1678 -42
2280 -1 295 21 565 54 651 80 55 16 60 13 93 -59z"/>
<path d="M7256 4109 c-3 -8 -15 -50 -27 -94 -75 -277 -199 -585 -342 -850 -78
-145 -243 -393 -354 -530 -340 -424 -849 -812 -1338 -1020 -659 -282 -1484
-363 -2595 -255 -113 11 -219 23 -237 26 -37 7 -73 -22 -73 -58 0 -57 179
-178 357 -241 225 -81 602 -149 973 -176 742 -55 1599 23 2134 195 637 204
1216 1122 1441 2283 47 246 95 705 75 725 -6 6 -11 4 -14 -5z"/>
<path d="M2430 2974 c-167 -44 -283 -222 -252 -386 29 -154 130 -259 279 -289
112 -23 225 13 310 97 189 189 99 511 -162 579 -72 18 -103 18 -175 -1z m221
-129 c148 -104 150 -305 4 -407 -109 -76 -259 -45 -339 70 -25 35 -31 55 -34
112 -5 83 8 124 53 177 54 64 105 85 197 81 66 -3 82 -7 119 -33z"/>
<path d="M1869 2831 c-32 -33 -37 -67 -14 -110 21 -42 69 -56 114 -34 48 24
66 62 51 108 -23 70 -99 88 -151 36z"/>
<path d="M1410 2505 c-136 -44 -208 -205 -149 -335 39 -87 110 -137 204 -147
100 -10 191 38 240 129 67 122 19 274 -107 339 -50 26 -133 32 -188 14z m157
-81 c105 -50 126 -206 38 -283 -73 -64 -174 -61 -241 6 -107 107 -32 293 119
293 27 0 65 -7 84 -16z"/>
</g>
</svg>
